<svg width="216" height="60" viewBox="0 0 216 60" fill="none" xmlns="http://www.w3.org/2000/svg">
<path d="M118.521 4.85445V6.74447H122.229V9.20868H118.521V11.314H122.732V13.8978H115.291V2.27063H122.732V4.85445H118.521Z" fill="#003770"/>
<path d="M127.541 1.69644V13.8978H124.311V1.69644H127.541Z" fill="#003770"/>
<path d="M138.187 9.92642H132.062C132.086 10.4288 132.23 10.8116 132.493 11.0509C132.732 11.2901 133.067 11.4336 133.45 11.4336C133.833 11.4336 134.383 11.1944 134.598 10.7159H138.043C137.9 11.3619 137.613 11.9121 137.206 12.4145C136.799 12.917 136.273 13.2997 135.651 13.5868C135.029 13.8739 134.335 14.0175 133.569 14.0175C132.804 14.0175 131.847 13.8261 131.129 13.4433C130.411 13.0605 129.861 12.5102 129.454 11.7925C129.048 11.0748 128.856 10.2374 128.856 9.28046C128.856 8.32349 129.048 7.48614 129.454 6.76841C129.861 6.05068 130.411 5.52434 131.105 5.11763C131.823 4.73484 132.636 4.54345 133.545 4.54345C134.455 4.54345 135.268 4.73484 135.962 5.0937C136.656 5.47649 137.206 6.00283 137.613 6.69664C138.019 7.39044 138.211 8.22779 138.211 9.16084C138.211 10.0939 138.211 9.66325 138.163 9.92642H138.187ZM134.933 8.37134C134.933 7.96462 134.79 7.6536 134.526 7.43828C134.263 7.22296 133.928 7.10334 133.545 7.10334C133.163 7.10334 132.828 7.19905 132.565 7.41436C132.301 7.62968 132.158 7.9407 132.062 8.37134H134.909H134.933Z" fill="#003770"/>
<path d="M139.622 6.76841C140.029 6.05068 140.579 5.50042 141.273 5.11763C141.991 4.73484 142.804 4.54345 143.713 4.54345C144.622 4.54345 145.89 4.85446 146.68 5.50042C147.493 6.14638 147.996 7.03157 148.235 8.20386H144.814C144.622 7.60576 144.24 7.29474 143.665 7.29474C143.091 7.29474 142.948 7.46221 142.709 7.79715C142.469 8.13209 142.35 8.6345 142.35 9.28046C142.35 9.92641 142.469 10.4288 142.709 10.7638C142.948 11.0987 143.259 11.2662 143.665 11.2662C144.24 11.2662 144.622 10.9552 144.814 10.3571H148.235C147.996 11.5054 147.493 12.3906 146.68 13.0366C145.867 13.6825 144.886 14.0175 143.713 14.0175C142.541 14.0175 141.991 13.8261 141.273 13.4433C140.555 13.0605 140.005 12.5102 139.622 11.7925C139.216 11.0748 139.024 10.2374 139.024 9.28046C139.024 8.32349 139.216 7.48614 139.622 6.76841Z" fill="#003770"/>
<path d="M149.647 6.76841C150.053 6.05068 150.604 5.50042 151.297 5.11763C152.015 4.73484 152.828 4.54345 153.738 4.54345C154.647 4.54345 155.915 4.85446 156.704 5.50042C157.518 6.14638 158.02 7.03157 158.259 8.20386H154.838C154.647 7.60576 154.264 7.29474 153.69 7.29474C153.116 7.29474 152.972 7.46221 152.733 7.79715C152.494 8.13209 152.374 8.6345 152.374 9.28046C152.374 9.92641 152.494 10.4288 152.733 10.7638C152.972 11.0987 153.283 11.2662 153.69 11.2662C154.264 11.2662 154.647 10.9552 154.838 10.3571H158.259C158.02 11.5054 157.518 12.3906 156.704 13.0366C155.891 13.6825 154.91 14.0175 153.738 14.0175C152.565 14.0175 152.015 13.8261 151.297 13.4433C150.58 13.0605 150.029 12.5102 149.647 11.7925C149.24 11.0748 149.048 10.2374 149.048 9.28046C149.048 8.32349 149.24 7.48614 149.647 6.76841Z" fill="#003770"/>
<path d="M159.838 3.3233C159.503 3.01229 159.312 2.60558 159.312 2.15101C159.312 1.69645 159.479 1.26581 159.838 0.954799C160.173 0.643783 160.652 0.476313 161.226 0.476313C161.8 0.476313 162.231 0.643783 162.59 0.954799C162.925 1.26581 163.116 1.67253 163.116 2.15101C163.116 2.6295 162.949 3.01229 162.59 3.3233C162.255 3.63432 161.8 3.80179 161.226 3.80179C160.652 3.80179 160.197 3.63432 159.838 3.3233ZM162.805 4.63914V13.8978H159.575V4.63914H162.805Z" fill="#003770"/>
<path d="M166.489 13.4433C165.748 13.0605 165.173 12.5102 164.767 11.7925C164.36 11.0748 164.145 10.2374 164.145 9.28046C164.145 8.32349 164.36 7.48614 164.791 6.76841C165.221 6.05068 165.795 5.50042 166.513 5.11763C167.255 4.73484 168.068 4.54345 169.001 4.54345C169.934 4.54345 170.748 4.73484 171.489 5.11763C172.231 5.50042 172.805 6.05068 173.212 6.76841C173.643 7.48614 173.858 8.32349 173.858 9.28046C173.858 10.2374 173.643 11.0748 173.212 11.7925C172.781 12.5102 172.207 13.0605 171.466 13.4433C170.724 13.8261 169.91 14.0175 168.977 14.0175C168.044 14.0175 167.231 13.8261 166.489 13.4433ZM170.102 10.7159C170.413 10.381 170.556 9.90249 170.556 9.28046C170.556 8.65843 170.413 8.17994 170.102 7.845C169.791 7.51006 169.432 7.34259 168.977 7.34259C168.523 7.34259 168.164 7.51006 167.877 7.845C167.59 8.17994 167.422 8.65843 167.422 9.28046C167.422 9.90249 167.566 10.4049 167.853 10.7398C168.14 11.0748 168.499 11.2423 168.954 11.2423C169.408 11.2423 169.791 11.0748 170.078 10.7398L170.102 10.7159Z" fill="#003770"/>
<path d="M183.739 5.62004C184.361 6.33777 184.672 7.29474 184.672 8.49096V13.8739H181.442V8.89767C181.442 8.37133 181.298 7.96462 181.035 7.65361C180.772 7.34259 180.389 7.19904 179.935 7.19904C179.48 7.19904 179.073 7.34259 178.786 7.65361C178.523 7.96462 178.38 8.37133 178.38 8.89767V13.8739H175.15V4.61522H178.38V5.93105C178.667 5.52434 179.05 5.16547 179.528 4.92623C180.007 4.66306 180.557 4.54345 181.203 4.54345C182.279 4.54345 183.117 4.90231 183.739 5.59612V5.62004Z" fill="#003770"/>
<path d="M195.246 9.92642H189.122C189.146 10.4288 189.289 10.8116 189.552 11.0509C189.792 11.2901 190.126 11.4336 190.509 11.4336C190.892 11.4336 191.442 11.1944 191.658 10.7159H195.103C194.959 11.3619 194.672 11.9121 194.265 12.4145C193.859 12.917 193.332 13.2997 192.71 13.5868C192.088 13.8739 191.394 14.0175 190.629 14.0175C189.863 14.0175 188.906 13.8261 188.189 13.4433C187.471 13.0605 186.921 12.5102 186.514 11.7925C186.107 11.0748 185.916 10.2374 185.916 9.28046C185.916 8.32349 186.107 7.48614 186.514 6.76841C186.921 6.05068 187.471 5.52434 188.165 5.11763C188.882 4.73484 189.696 4.54345 190.605 4.54345C191.514 4.54345 192.328 4.73484 193.021 5.0937C193.715 5.47649 194.265 6.00283 194.672 6.69664C195.079 7.39044 195.27 8.22779 195.27 9.16084C195.27 10.0939 195.27 9.66325 195.222 9.92642H195.246ZM192.017 8.37134C192.017 7.96462 191.873 7.6536 191.61 7.43828C191.347 7.22296 191.012 7.10334 190.629 7.10334C190.246 7.10334 189.911 7.19905 189.648 7.41436C189.385 7.62968 189.241 7.9407 189.146 8.37134H191.993H192.017Z" fill="#003770"/>
<path d="M198.333 13.5868C197.687 13.2997 197.16 12.917 196.777 12.4385C196.395 11.96 196.179 11.3858 196.131 10.7877H199.266C199.313 11.0748 199.457 11.314 199.672 11.4815C199.912 11.649 200.199 11.7207 200.534 11.7207C200.868 11.7207 201.012 11.6729 201.156 11.5533C201.299 11.4336 201.395 11.2901 201.395 11.1226C201.395 10.9552 201.275 10.7159 201.012 10.6202C200.749 10.5006 200.342 10.381 199.768 10.2614C199.098 10.1178 198.548 9.97427 198.117 9.8068C197.687 9.63933 197.304 9.37615 196.969 8.99336C196.634 8.61057 196.49 8.10817 196.49 7.48614C196.49 6.8641 196.634 6.43346 196.945 6.00282C197.232 5.54826 197.687 5.21332 198.261 4.95016C198.835 4.68699 199.529 4.54345 200.342 4.54345C201.562 4.54345 202.495 4.83053 203.189 5.42864C203.883 6.02675 204.29 6.79233 204.385 7.77323H201.467C201.419 7.48614 201.275 7.24689 201.084 7.07942C200.868 6.91195 200.605 6.84018 200.27 6.84018C199.935 6.84018 199.816 6.88803 199.672 6.98372C199.529 7.07942 199.457 7.22297 199.457 7.39044C199.457 7.55791 199.577 7.77323 199.84 7.89285C200.103 8.01247 200.51 8.13209 201.06 8.25172C201.73 8.39526 202.28 8.56273 202.735 8.7302C203.189 8.89767 203.572 9.18476 203.907 9.59147C204.242 9.97426 204.409 10.5006 204.409 11.1944C204.409 11.8882 204.242 12.2232 203.931 12.6538C203.62 13.0844 203.165 13.4194 202.591 13.6586C202.017 13.8978 201.323 14.0414 200.557 14.0414C199.792 14.0414 198.978 13.8979 198.333 13.6108V13.5868Z" fill="#003770"/>
<path d="M122.708 25.8839C122.516 25.5729 122.253 25.3337 121.942 25.1662C121.631 24.9987 121.225 24.927 120.794 24.927C119.98 24.927 119.334 25.1901 118.88 25.7165C118.401 26.2428 118.186 26.9605 118.186 27.8457C118.186 28.7309 118.425 29.6161 118.928 30.1185C119.43 30.6449 120.148 30.908 121.105 30.908C122.062 30.908 123.043 30.4056 123.521 29.3769H120.268V27.0562H126.296V30.1903C126.033 30.8123 125.674 31.3865 125.172 31.9129C124.694 32.4631 124.072 32.8938 123.306 33.2287C122.564 33.5636 121.703 33.755 120.746 33.755C119.789 33.755 118.545 33.5158 117.66 33.0134C116.775 32.511 116.081 31.8172 115.578 30.908C115.1 30.0228 114.837 28.9941 114.837 27.8218C114.837 26.6495 115.076 25.6686 115.578 24.7595C116.057 23.8743 116.751 23.1566 117.66 22.6541C118.545 22.1517 119.574 21.9125 120.746 21.9125C121.918 21.9125 123.426 22.2714 124.383 22.9652C125.339 23.659 125.938 24.6399 126.153 25.86H122.684L122.708 25.8839Z" fill="#003770"/>
<path d="M136.56 29.7118H130.435C130.459 30.2142 130.603 30.597 130.866 30.8363C131.105 31.0755 131.44 31.219 131.823 31.219C132.206 31.219 132.756 30.9798 132.971 30.5013H136.416C136.273 31.1473 135.986 31.6975 135.579 32.1999C135.172 32.7024 134.646 33.0851 134.024 33.3722C133.402 33.6593 132.708 33.8029 131.943 33.8029C131.177 33.8029 130.22 33.6115 129.502 33.2287C128.785 32.8459 128.234 32.2956 127.828 31.5779C127.421 30.8602 127.23 30.0228 127.23 29.0659C127.23 28.1089 127.421 27.2715 127.828 26.5538C128.234 25.8361 128.785 25.3097 129.478 24.903C130.196 24.5202 131.01 24.3288 131.919 24.3288C132.828 24.3288 133.641 24.5202 134.335 24.8791C135.029 25.2619 135.579 25.7882 135.986 26.482C136.393 27.1758 136.584 28.0132 136.584 28.9462C136.584 29.8793 136.584 29.4486 136.536 29.7118H136.56ZM133.306 28.1567C133.306 27.75 133.163 27.439 132.9 27.2237C132.636 27.0084 132.301 26.8887 131.919 26.8887C131.536 26.8887 131.201 26.9844 130.938 27.1998C130.675 27.4151 130.531 27.7261 130.435 28.1567H133.282H133.306Z" fill="#003770"/>
<path d="M146.512 25.4294C147.134 26.1471 147.446 27.1041 147.446 28.3003V33.6833H144.216V28.707C144.216 28.1807 144.072 27.7739 143.809 27.4629C143.546 27.1519 143.163 27.0084 142.708 27.0084C142.254 27.0084 141.847 27.1519 141.56 27.4629C141.297 27.7739 141.153 28.1807 141.153 28.707V33.6833H137.924V24.4245H141.153V25.7404C141.441 25.3337 141.823 24.9748 142.302 24.7356C142.78 24.4724 143.331 24.3528 143.976 24.3528C145.053 24.3528 145.89 24.7116 146.512 25.4054V25.4294Z" fill="#003770"/>
<path d="M158.02 29.7118H151.895C151.919 30.2142 152.063 30.597 152.326 30.8363C152.565 31.0755 152.9 31.219 153.283 31.219C153.666 31.219 154.216 30.9798 154.431 30.5013H157.876C157.733 31.1473 157.446 31.6975 157.039 32.1999C156.632 32.7024 156.106 33.0851 155.484 33.3722C154.862 33.6593 154.168 33.8029 153.403 33.8029C152.637 33.8029 151.68 33.6115 150.962 33.2287C150.245 32.8459 149.694 32.2956 149.288 31.5779C148.881 30.8602 148.69 30.0228 148.69 29.0659C148.69 28.1089 148.881 27.2715 149.288 26.5538C149.694 25.8361 150.245 25.3097 150.938 24.903C151.656 24.5202 152.47 24.3288 153.379 24.3288C154.288 24.3288 155.101 24.5202 155.795 24.8791C156.489 25.2619 157.039 25.7882 157.446 26.482C157.853 27.1758 158.044 28.0132 158.044 28.9462C158.044 29.8793 158.044 29.4486 157.996 29.7118H158.02ZM154.79 28.1567C154.79 27.75 154.647 27.439 154.384 27.2237C154.12 27.0084 153.785 26.8887 153.403 26.8887C153.02 26.8887 152.685 26.9844 152.422 27.1998C152.159 27.4151 152.015 27.7261 151.919 28.1567H154.766H154.79Z" fill="#003770"/>
<path d="M163.953 24.8313C164.48 24.5202 165.03 24.3767 165.628 24.3767V27.8218H164.719C164.025 27.8218 163.499 27.9653 163.164 28.2285C162.829 28.4917 162.661 28.9702 162.661 29.664V33.7072H159.432V24.4485H162.661V26.0753C163.02 25.549 163.475 25.1183 163.977 24.8313H163.953Z" fill="#003770"/>
<path d="M166.752 26.5538C167.087 25.8361 167.566 25.2858 168.164 24.903C168.762 24.5202 169.432 24.3288 170.174 24.3288C170.915 24.3288 171.37 24.4485 171.824 24.7116C172.279 24.9748 172.638 25.3097 172.901 25.7404V24.4485H176.131V33.7072H172.901V32.4153C172.638 32.8459 172.279 33.1808 171.824 33.444C171.346 33.7072 170.82 33.8268 170.174 33.8268C169.528 33.8268 168.762 33.6354 168.164 33.2526C167.566 32.8698 167.087 32.3196 166.752 31.6018C166.417 30.8841 166.226 30.0468 166.226 29.0898C166.226 28.1328 166.394 27.2955 166.752 26.5777V26.5538ZM172.422 27.6543C172.088 27.3194 171.705 27.1519 171.226 27.1519C170.748 27.1519 170.341 27.3194 170.03 27.6543C169.719 27.9893 169.552 28.4677 169.552 29.0659C169.552 29.664 169.719 30.1185 170.03 30.4774C170.341 30.8123 170.748 31.0037 171.226 31.0037C171.705 31.0037 172.088 30.8363 172.422 30.5013C172.757 30.1664 172.901 29.6879 172.901 29.0898C172.901 28.4917 172.734 28.0371 172.422 27.6782V27.6543Z" fill="#003770"/>
<path d="M181.227 21.4819V33.6833H177.997V21.4819H181.227Z" fill="#003770"/>
<path d="M191.849 29.7118H185.724C185.748 30.2142 185.892 30.597 186.155 30.8363C186.394 31.0755 186.729 31.219 187.112 31.219C187.495 31.219 188.045 30.9798 188.26 30.5013H191.706C191.562 31.1473 191.275 31.6975 190.868 32.1999C190.461 32.7024 189.935 33.0851 189.313 33.3722C188.691 33.6593 187.997 33.8029 187.232 33.8029C186.466 33.8029 185.509 33.6115 184.791 33.2287C184.074 32.8459 183.523 32.2956 183.117 31.5779C182.71 30.8602 182.519 30.0228 182.519 29.0659C182.519 28.1089 182.71 27.2715 183.117 26.5538C183.523 25.8361 184.074 25.3097 184.767 24.903C185.485 24.5202 186.299 24.3288 187.208 24.3288C188.117 24.3288 188.93 24.5202 189.624 24.8791C190.318 25.2619 190.868 25.7882 191.275 26.482C191.682 27.1758 191.873 28.0132 191.873 28.9462C191.873 29.8793 191.873 29.4486 191.825 29.7118H191.849ZM188.619 28.1567C188.619 27.75 188.476 27.439 188.213 27.2237C187.949 27.0084 187.614 26.8887 187.232 26.8887C186.849 26.8887 186.514 26.9844 186.251 27.1998C185.988 27.4151 185.844 27.7261 185.748 28.1567H188.595H188.619Z" fill="#003770"/>
<path d="M194.935 33.3962C194.289 33.1091 193.763 32.7263 193.38 32.2478C192.997 31.7693 192.782 31.1951 192.734 30.597H195.868C195.916 30.8841 196.06 31.1233 196.275 31.2908C196.514 31.4583 196.801 31.5301 197.136 31.5301C197.471 31.5301 197.615 31.4822 197.758 31.3626C197.902 31.243 197.998 31.0994 197.998 30.932C197.998 30.7645 197.878 30.5252 197.615 30.4295C197.352 30.3099 196.945 30.1903 196.371 30.0707C195.701 29.9271 195.151 29.7836 194.72 29.6161C194.289 29.4486 193.906 29.1855 193.572 28.8027C193.237 28.4199 193.093 27.9175 193.093 27.2955C193.093 26.6734 193.237 26.2428 193.548 25.8122C193.835 25.3576 194.289 25.0226 194.863 24.7595C195.438 24.4963 196.131 24.3528 196.945 24.3528C198.165 24.3528 199.098 24.6399 199.792 25.238C200.486 25.8361 200.892 26.6017 200.988 27.5826H198.069C198.021 27.2955 197.878 27.0562 197.687 26.8887C197.471 26.7213 197.208 26.6495 196.873 26.6495C196.538 26.6495 196.419 26.6974 196.275 26.793C196.131 26.8887 196.06 27.0323 196.06 27.1998C196.06 27.3672 196.179 27.5826 196.442 27.7022C196.706 27.8218 197.112 27.9414 197.663 28.061C198.332 28.2046 198.883 28.3721 199.337 28.5395C199.792 28.707 200.175 28.9941 200.51 29.4008C200.845 29.7836 201.012 30.3099 201.012 31.0037C201.012 31.6975 200.845 32.0325 200.534 32.4631C200.223 32.8937 199.768 33.2287 199.194 33.4679C198.62 33.7072 197.926 33.8507 197.16 33.8507C196.395 33.8507 195.581 33.7072 194.935 33.4201V33.3962Z" fill="#003770"/>
<path d="M212.974 60H117.564C116.153 60 114.98 58.8516 114.98 57.4162V44.4492C114.98 43.0377 116.129 41.8654 117.564 41.8654H212.974C214.386 41.8654 215.558 43.0137 215.558 44.4492V57.4162C215.558 58.8277 214.41 60 212.974 60ZM117.564 42.3439C116.392 42.3439 115.435 43.3008 115.435 44.4731V57.4401C115.435 58.6124 116.392 59.5694 117.564 59.5694H212.974C214.147 59.5694 215.104 58.6124 215.104 57.4401V44.4731C215.104 43.3008 214.147 42.3439 212.974 42.3439H117.564Z" fill="#2570B8"/>
<path d="M122.349 48.9709V47.4876H124.933V54.3299H123.258V48.9948H122.325L122.349 48.9709Z" fill="#2570B7"/>
<path d="M126.249 52.7988C126.871 52.2964 127.349 51.8897 127.684 51.5547C128.043 51.2198 128.33 50.8848 128.569 50.526C128.809 50.1671 128.928 49.8322 128.928 49.4972C128.928 49.1623 128.88 49.0427 128.761 48.8991C128.641 48.7556 128.474 48.6838 128.234 48.6838C127.995 48.6838 127.804 48.7795 127.684 48.947C127.564 49.1144 127.493 49.3776 127.493 49.6886H125.938C125.938 49.1623 126.057 48.7077 126.273 48.3489C126.488 47.99 126.775 47.7268 127.134 47.5594C127.493 47.3919 127.875 47.2962 128.306 47.2962C129.048 47.2962 129.598 47.4876 129.981 47.8704C130.364 48.2532 130.555 48.7556 130.555 49.3537C130.555 49.9518 130.316 50.6456 129.861 51.2198C129.407 51.794 128.832 52.3442 128.115 52.8945H130.651V54.1864H125.962V52.9902C126.177 52.8227 126.273 52.7509 126.249 52.7509V52.7988Z" fill="#2570B7"/>
<path d="M133.498 50.2867C133.689 49.88 133.976 49.569 134.335 49.3537C134.694 49.1384 135.077 49.0187 135.507 49.0187C135.938 49.0187 136.153 49.0905 136.44 49.2341C136.727 49.3776 136.943 49.569 137.11 49.8082V47.3919H138.713V54.306H137.11V53.5644C136.967 53.8036 136.751 54.0189 136.464 54.1625C136.177 54.306 135.866 54.3778 135.507 54.3778C135.148 54.3778 134.694 54.2582 134.335 54.0428C133.976 53.8275 133.713 53.5165 133.498 53.0859C133.282 52.6552 133.187 52.2007 133.187 51.6743C133.187 51.148 133.282 50.6695 133.498 50.2628V50.2867ZM136.775 50.7652C136.56 50.526 136.273 50.4303 135.962 50.4303C135.651 50.4303 135.364 50.5499 135.148 50.7652C134.933 51.0045 134.814 51.3155 134.814 51.6983C134.814 52.081 134.933 52.416 135.148 52.6552C135.364 52.8945 135.651 53.0141 135.962 53.0141C136.273 53.0141 136.56 52.8945 136.775 52.6792C136.991 52.4399 137.11 52.1289 137.11 51.7222C137.11 51.3155 136.991 51.0045 136.775 50.7652Z" fill="#2570B7"/>
<path d="M144.766 52.105H141.153C141.177 52.4399 141.273 52.6792 141.464 52.8466C141.656 53.0141 141.871 53.1098 142.134 53.1098C142.541 53.1098 142.804 52.9423 142.972 52.6074H144.67C144.575 52.9423 144.431 53.2533 144.192 53.5404C143.953 53.8036 143.689 54.0189 143.331 54.1864C142.996 54.3539 142.613 54.4256 142.182 54.4256C141.752 54.4256 141.225 54.306 140.819 54.0907C140.412 53.8754 140.101 53.5644 139.885 53.1576C139.67 52.7509 139.551 52.2724 139.551 51.7461C139.551 51.2198 139.67 50.7413 139.885 50.3346C140.101 49.9279 140.412 49.6168 140.819 49.4015C141.225 49.1862 141.68 49.0666 142.206 49.0666C142.732 49.0666 143.163 49.1623 143.546 49.3776C143.929 49.5929 144.24 49.9039 144.479 50.2867C144.694 50.6695 144.814 51.148 144.814 51.6743C144.814 52.2007 144.814 51.9854 144.79 52.1528L144.766 52.105ZM143.163 51.1959C143.163 50.9327 143.067 50.6934 142.876 50.5499C142.685 50.3824 142.445 50.3107 142.182 50.3107C141.919 50.3107 141.68 50.3824 141.512 50.5499C141.321 50.7174 141.225 50.9327 141.177 51.2198H143.187L143.163 51.1959Z" fill="#2570B7"/>
<path d="M147.613 50.2867C147.804 49.88 148.091 49.569 148.45 49.3537C148.809 49.1384 149.192 49.0187 149.623 49.0187C150.053 49.0187 150.316 49.0905 150.58 49.2341C150.867 49.3776 151.082 49.569 151.226 49.8322V49.0905H152.828V54.306H151.226V53.5644C151.058 53.8036 150.843 53.995 150.58 54.1625C150.293 54.306 149.982 54.3778 149.623 54.3778C149.264 54.3778 148.809 54.2582 148.45 54.0428C148.091 53.8275 147.828 53.5165 147.613 53.0859C147.398 52.6552 147.302 52.2007 147.302 51.6743C147.302 51.148 147.398 50.6695 147.613 50.2628V50.2867ZM150.867 50.7652C150.651 50.526 150.364 50.4303 150.053 50.4303C149.742 50.4303 149.455 50.5499 149.24 50.7652C149.025 51.0045 148.905 51.3155 148.905 51.6983C148.905 52.081 149.025 52.416 149.24 52.6552C149.455 52.8945 149.742 53.0141 150.053 53.0141C150.364 53.0141 150.651 52.8945 150.867 52.6792C151.082 52.4399 151.202 52.1289 151.202 51.7222C151.202 51.3155 151.082 51.0045 150.867 50.7652Z" fill="#2570B7"/>
<path d="M156.226 49.258C156.513 49.1144 156.824 49.0427 157.183 49.0427C157.542 49.0427 157.996 49.1623 158.355 49.3776C158.714 49.5929 158.977 49.9039 159.192 50.3107C159.384 50.7174 159.503 51.1959 159.503 51.7222C159.503 52.2485 159.408 52.727 159.192 53.1337C158.977 53.5404 158.714 53.8515 158.355 54.0907C157.996 54.306 157.613 54.4256 157.183 54.4256C156.752 54.4256 156.489 54.3539 156.226 54.2103C155.963 54.0668 155.747 53.8754 155.58 53.6361V54.3778H153.977V47.4637H155.58V49.9039C155.723 49.6647 155.939 49.4733 156.226 49.3058V49.258ZM157.518 50.7652C157.302 50.526 157.015 50.4303 156.704 50.4303C156.393 50.4303 156.106 50.5499 155.891 50.7652C155.675 51.0045 155.556 51.3155 155.556 51.7222C155.556 52.1289 155.675 52.4399 155.891 52.6792C156.106 52.9184 156.393 53.0141 156.704 53.0141C157.015 53.0141 157.302 52.8945 157.518 52.6552C157.733 52.416 157.853 52.105 157.853 51.6983C157.853 51.2916 157.733 50.9805 157.518 50.7652Z" fill="#2570B7"/>
<path d="M162.637 49.2819C162.925 49.1144 163.236 49.0427 163.571 49.0427V50.7413H163.14C162.733 50.7413 162.446 50.837 162.231 51.0045C162.039 51.1719 161.92 51.4829 161.92 51.9136V54.3299H160.317V49.1144H161.92V49.9757C162.111 49.6886 162.35 49.4733 162.614 49.3058L162.637 49.2819Z" fill="#2570B7"/>
<path d="M164.456 48.301C164.288 48.1335 164.193 47.9421 164.193 47.679C164.193 47.4158 164.288 47.2244 164.456 47.0569C164.623 46.8895 164.862 46.8177 165.15 46.8177C165.437 46.8177 165.652 46.8895 165.819 47.0569C165.987 47.2244 166.083 47.4397 166.083 47.679C166.083 47.9182 165.987 48.1335 165.819 48.301C165.652 48.4685 165.413 48.5403 165.15 48.5403C164.886 48.5403 164.647 48.4685 164.456 48.301ZM165.939 49.0905V54.306H164.336V49.0905H165.939Z" fill="#2570B7"/>
<path d="M168.69 47.3919V54.306H167.087V47.3919H168.69Z" fill="#2570B7"/>
<path d="M171.824 50.2867C172.016 49.88 172.303 49.569 172.662 49.3537C173.021 49.1384 173.403 49.0187 173.834 49.0187C174.265 49.0187 174.48 49.0905 174.767 49.2341C175.054 49.3776 175.27 49.569 175.437 49.8082V47.3919H177.04V54.306H175.437V53.5644C175.293 53.8036 175.078 54.0189 174.791 54.1625C174.504 54.306 174.193 54.3778 173.834 54.3778C173.475 54.3778 173.021 54.2582 172.662 54.0428C172.303 53.8275 172.04 53.5165 171.824 53.0859C171.609 52.6552 171.513 52.2007 171.513 51.6743C171.513 51.148 171.609 50.6695 171.824 50.2628V50.2867ZM175.102 50.7652C174.887 50.526 174.6 50.4303 174.289 50.4303C173.978 50.4303 173.691 50.5499 173.475 50.7652C173.26 51.0045 173.14 51.3155 173.14 51.6983C173.14 52.081 173.26 52.416 173.475 52.6552C173.691 52.8945 173.978 53.0141 174.289 53.0141C174.6 53.0141 174.887 52.8945 175.102 52.6792C175.317 52.4399 175.437 52.1289 175.437 51.7222C175.437 51.3155 175.317 51.0045 175.102 50.7652Z" fill="#2570B7"/>
<path d="M183.093 52.105H179.48C179.504 52.4399 179.6 52.6792 179.791 52.8466C179.983 53.0141 180.198 53.1098 180.461 53.1098C180.868 53.1098 181.131 52.9423 181.298 52.6074H182.997C182.901 52.9423 182.758 53.2533 182.519 53.5404C182.279 53.8036 182.016 54.0189 181.657 54.1864C181.322 54.3539 180.94 54.4256 180.509 54.4256C180.078 54.4256 179.552 54.306 179.145 54.0907C178.739 53.8754 178.428 53.5644 178.212 53.1576C177.997 52.7509 177.877 52.2724 177.877 51.7461C177.877 51.2198 177.997 50.7413 178.212 50.3346C178.428 49.9279 178.739 49.6168 179.145 49.4015C179.552 49.1862 180.007 49.0666 180.533 49.0666C181.059 49.0666 181.49 49.1623 181.873 49.3776C182.255 49.5929 182.566 49.9039 182.806 50.2867C183.021 50.6695 183.141 51.148 183.141 51.6743C183.141 52.2007 183.141 51.9854 183.117 52.1528L183.093 52.105ZM181.466 51.1959C181.466 50.9327 181.37 50.6934 181.179 50.5499C180.987 50.3824 180.748 50.3107 180.485 50.3107C180.222 50.3107 179.983 50.3824 179.815 50.5499C179.624 50.7174 179.528 50.9327 179.48 51.2198H181.49L181.466 51.1959Z" fill="#2570B7"/>
<path d="M186.012 52.7988C186.634 52.2964 187.112 51.8897 187.447 51.5547C187.806 51.2198 188.093 50.8848 188.332 50.526C188.571 50.1671 188.691 49.8322 188.691 49.4972C188.691 49.1623 188.643 49.0427 188.524 48.8991C188.404 48.7556 188.236 48.6838 187.997 48.6838C187.758 48.6838 187.567 48.7795 187.447 48.947C187.327 49.1144 187.256 49.3776 187.256 49.6886H185.701C185.701 49.1623 185.82 48.7077 186.035 48.3489C186.251 47.99 186.538 47.7268 186.897 47.5594C187.256 47.3919 187.638 47.2962 188.069 47.2962C188.811 47.2962 189.361 47.4876 189.744 47.8704C190.126 48.2532 190.318 48.7556 190.318 49.3537C190.318 49.9518 190.079 50.6456 189.624 51.2198C189.17 51.794 188.595 52.3442 187.878 52.8945H190.414V54.1864H185.724V52.9902C185.94 52.8227 186.035 52.7509 186.012 52.7509V52.7988Z" fill="#2570B7"/>
<path d="M191.753 48.2771C192.16 47.6551 192.83 47.344 193.763 47.344C194.696 47.344 195.366 47.6551 195.773 48.2771C196.179 48.8991 196.395 49.7365 196.395 50.8131C196.395 51.8897 196.179 52.7509 195.773 53.373C195.366 53.995 194.696 54.306 193.763 54.306C192.83 54.306 192.16 53.995 191.753 53.373C191.347 52.7509 191.131 51.9136 191.131 50.8131C191.131 49.7126 191.347 48.8991 191.753 48.2771ZM194.6 49.3537C194.457 49.0187 194.17 48.8513 193.739 48.8513C193.308 48.8513 193.021 49.0187 192.878 49.3537C192.734 49.6886 192.662 50.1671 192.662 50.8131C192.662 51.459 192.686 51.5786 192.734 51.8657C192.782 52.1528 192.878 52.3682 193.045 52.5356C193.189 52.7031 193.428 52.7988 193.715 52.7988C194.002 52.7988 194.241 52.7031 194.385 52.5356C194.529 52.3682 194.648 52.1289 194.696 51.8657C194.744 51.5786 194.768 51.2437 194.768 50.8131C194.768 50.191 194.696 49.6886 194.553 49.3537H194.6Z" fill="#2570B7"/>
<path d="M197.447 52.7988C198.069 52.2964 198.548 51.8897 198.883 51.5547C199.242 51.2198 199.529 50.8848 199.768 50.526C200.007 50.1671 200.127 49.8322 200.127 49.4972C200.127 49.1623 200.079 49.0427 199.959 48.8991C199.84 48.7556 199.672 48.6838 199.433 48.6838C199.194 48.6838 199.002 48.7795 198.883 48.947C198.763 49.1144 198.691 49.3776 198.691 49.6886H197.136C197.136 49.1623 197.256 48.7077 197.471 48.3489C197.687 47.99 197.974 47.7268 198.333 47.5594C198.691 47.3919 199.074 47.2962 199.505 47.2962C200.247 47.2962 200.797 47.4876 201.18 47.8704C201.562 48.2532 201.754 48.7556 201.754 49.3537C201.754 49.9518 201.515 50.6456 201.06 51.2198C200.605 51.794 200.031 52.3442 199.313 52.8945H201.849V54.1864H197.16V52.9902C197.376 52.8227 197.471 52.7509 197.447 52.7509V52.7988Z" fill="#2570B7"/>
<path d="M205.677 48.8034C205.558 48.6838 205.366 48.636 205.151 48.636C204.792 48.636 204.529 48.7795 204.385 49.0905C204.218 49.4015 204.146 49.88 204.146 50.5499C204.29 50.3346 204.481 50.1671 204.744 50.0236C205.007 49.9039 205.295 49.8322 205.606 49.8322C206.228 49.8322 206.706 50.0236 207.089 50.4063C207.472 50.7891 207.639 51.3394 207.639 52.0332C207.639 52.727 207.543 52.8945 207.352 53.2294C207.161 53.5644 206.897 53.8515 206.539 54.0428C206.18 54.2342 205.773 54.3299 205.295 54.3299C204.338 54.3299 203.668 54.0189 203.285 53.4208C202.902 52.8227 202.735 51.9614 202.735 50.8131C202.735 49.6647 202.926 48.7556 203.333 48.1575C203.739 47.5833 204.362 47.2962 205.247 47.2962C206.132 47.2962 206.108 47.3919 206.419 47.5833C206.73 47.7747 206.993 48.0139 207.161 48.301C207.328 48.612 207.424 48.923 207.448 49.2819H205.964C205.917 49.0427 205.821 48.8752 205.701 48.7556L205.677 48.8034ZM204.529 51.3633C204.362 51.5308 204.266 51.7461 204.266 52.0332C204.266 52.3203 204.338 52.5595 204.505 52.727C204.673 52.8945 204.912 52.9902 205.223 52.9902C205.534 52.9902 205.725 52.9184 205.869 52.7509C206.036 52.5835 206.108 52.3681 206.108 52.0811C206.108 51.794 206.036 51.5547 205.869 51.3872C205.701 51.2198 205.486 51.1241 205.199 51.1241C204.912 51.1241 204.696 51.1959 204.529 51.3633Z" fill="#2570B7"/>
<path d="M64.3324 10.6681C64.0214 11.3619 63.7343 11.96 63.4712 12.4145C63.3037 12.7016 62.8731 12.582 62.8731 12.2471C62.8731 12.2471 62.8252 11.9121 62.7534 11.5054L66.9402 37.4872L48.9491 40.095L49.2123 41.7218L68.902 38.8748L64.3564 10.6681H64.3324Z" fill="#808080"/>
<path d="M3.32548 56.5549C1.10052 54.3299 0 51.1719 0 47.0809C0 42.9898 1.10052 39.8318 3.32548 37.6068C5.55044 35.3819 8.80414 34.2574 13.0866 34.2574C17.369 34.2574 20.6228 35.3819 22.8477 37.6068C25.0727 39.8318 26.1732 42.9898 26.1732 47.0809C26.1732 51.1719 25.0727 54.3299 22.8477 56.5549C20.6228 58.7799 17.369 59.9043 13.0866 59.9043C8.80414 59.9043 5.55044 58.7799 3.32548 56.5549ZM16.4838 52.1528C17.1777 51.0284 17.5365 49.3298 17.5365 47.0809C17.5365 44.832 17.1777 43.0855 16.4838 41.985C15.79 40.8845 14.6417 40.3342 13.0866 40.3342C11.5315 40.3342 10.3831 40.8845 9.68934 41.985C8.99554 43.0855 8.63667 44.7841 8.63667 47.0809C8.63667 49.3776 8.99554 51.0284 9.68934 52.1528C10.3831 53.2773 11.5076 53.8275 13.0866 53.8275C14.6656 53.8275 15.79 53.2773 16.4838 52.1528Z" fill="#1C3A69"/>
<path d="M29.7379 59.354C29.403 58.9952 29.2355 58.4688 29.2355 57.7272V36.4106C29.2355 35.6929 29.403 35.1426 29.7379 34.8077C30.0729 34.4728 30.671 34.3053 31.5083 34.3053H35.0491C35.5755 34.3053 35.9822 34.3771 36.2453 34.5206C36.5324 34.6641 36.8195 34.9273 37.0827 35.334L43.8054 45.454V36.4585C43.8054 35.7407 43.9729 35.1905 44.3078 34.8316C44.6428 34.4728 45.217 34.3053 46.0304 34.3053H50.4564C51.2937 34.3053 51.8918 34.4728 52.2268 34.8077C52.5617 35.1426 52.7292 35.6929 52.7292 36.4345V57.7511C52.7292 58.4688 52.5617 59.0191 52.2268 59.354C51.8918 59.689 51.2937 59.8565 50.4564 59.8565H46.9156C46.3893 59.8565 45.9825 59.7847 45.7194 59.6411C45.4323 59.4976 45.1452 59.2344 44.882 58.8277L38.1593 48.7077V57.7272C38.1593 58.4449 37.9918 58.9952 37.6569 59.3301C37.3219 59.6651 36.7238 59.8325 35.8865 59.8325H31.4605C30.6471 59.8325 30.0729 59.6651 29.7379 59.3062V59.354Z" fill="#1C3A69"/>
<path d="M56.581 59.354C56.246 58.9952 56.0786 58.4688 56.0786 57.7272V36.4345C56.0786 35.7168 56.246 35.1666 56.581 34.8077C56.9159 34.4488 57.514 34.2814 58.3514 34.2814H67.4426C71.2466 34.2814 74.0218 35.023 75.7683 36.5302C77.5147 38.0135 78.376 40.2624 78.376 43.2769C78.376 46.2914 77.5147 48.5402 75.7683 49.9996C74.0218 51.4829 71.2705 52.2246 67.4905 52.2246H65.1937V57.7033C65.1937 58.421 65.0262 58.9713 64.6913 59.3301C64.3564 59.689 63.7343 59.8565 62.8731 59.8565H58.3514C57.514 59.8565 56.9159 59.689 56.581 59.3301V59.354ZM66.6531 45.8607C67.4665 45.8607 68.1125 45.6454 68.567 45.2148C69.0455 44.7841 69.2608 44.1382 69.2608 43.3008C69.2608 42.4635 69.0216 41.7697 68.567 41.339C68.0886 40.9084 67.4665 40.6931 66.6531 40.6931H64.0693V45.8368H66.6531V45.8607Z" fill="#1C3A69"/>
<path d="M82.18 59.354C81.8451 58.9952 81.6776 58.4688 81.6776 57.7272V36.4345C81.6776 35.7168 81.8451 35.1666 82.18 34.8077C82.515 34.4488 83.1131 34.2814 83.9265 34.2814H97.7787C98.5921 34.2814 99.1184 34.4488 99.4055 34.7838C99.6926 35.1187 99.8362 35.669 99.8362 36.4106V38.516C99.8362 39.2576 99.6926 39.8079 99.4055 40.1428C99.1184 40.4778 98.5682 40.6452 97.7787 40.6452H90.6971V43.875H95.769C96.5825 43.875 97.1088 44.0425 97.3959 44.3774C97.683 44.7124 97.8265 45.2626 97.8265 46.0043V48.0378C97.8265 48.7795 97.683 49.3298 97.3959 49.6647C97.1088 49.9996 96.5585 50.1671 95.769 50.1671H90.6971V53.3969H97.7308C98.5443 53.3969 99.0706 53.5644 99.3577 53.8993C99.6448 54.2342 99.7883 54.7845 99.7883 55.5261V57.6315C99.7883 58.3731 99.6448 58.9234 99.3577 59.2583C99.0706 59.5933 98.5203 59.7608 97.7308 59.7608H83.9265C83.0891 59.7608 82.515 59.5933 82.18 59.2344V59.354Z" fill="#1C3A69"/>
<path d="M62.7535 11.5293C62.7056 11.2183 62.6339 10.8355 62.586 10.5484C62.4664 9.87856 64.1172 7.62967 64.1411 4.83053C64.1411 2.98835 63.0884 1.28973 62.3707 0.619846C62.1554 0.428451 62.2989 0.0695896 62.586 0.0695896H35.6233V0.117441C35.6472 0.141365 35.6951 0.165288 35.6951 0.213137C35.8865 0.572002 35.408 4.8066 36.1736 10.8355C36.7238 15.0462 38.3746 23.2283 38.3746 23.2283C38.566 24.2331 39.5708 24.8791 40.5996 24.6159C41.5087 24.3767 42.0111 23.3958 41.8436 22.4627L40.6953 16.2903L43.2552 15.5247L45.0256 25.1183C45.217 26.1232 46.2218 26.7691 47.2505 26.506C48.1597 26.2667 48.6621 25.2858 48.4946 24.3528L46.6763 14.5199L49.2362 13.7543L51.7483 27.3672C51.9397 28.3721 52.9445 29.018 53.9733 28.7548C54.8824 28.5156 55.3848 27.5347 55.2173 26.6017L52.6574 12.7495L55.2173 11.9839L57.5619 24.6638C57.7533 25.6686 58.7581 26.3146 59.7869 26.0514C60.696 25.8122 61.1984 24.8313 61.0309 23.8982L58.0165 7.62967V7.60575L59.4759 7.34258H59.4998L62.6817 24.5202C62.9449 25.9078 62.0358 27.2237 60.6481 27.4869C60.5764 27.4869 60.5046 27.5108 60.4328 27.5347L59.3323 27.7261C58.1361 27.9414 56.9638 27.2715 56.5092 26.1949C56.5092 26.171 56.4614 26.1949 56.4614 26.1949L56.6528 27.2237C56.9159 28.6113 55.9829 29.9511 54.5953 30.2142L53.5665 30.4056C52.1789 30.6688 50.8392 29.7357 50.576 28.3481L50.0497 25.5011C50.0497 25.4772 50.0018 25.4772 50.0018 25.5011C50.0018 26.6734 49.1405 27.7261 47.9204 27.9414L46.8677 28.1328C46.2936 28.2285 45.7433 28.1328 45.2648 27.8936L47.2745 40.2864L66.9642 37.4394L62.7774 11.4576L62.7535 11.5293Z" fill="white"/>
<path d="M46.8677 28.1807L47.9204 27.9893C49.1166 27.7739 49.9779 26.7213 50.0018 25.549C50.0018 25.5251 50.0497 25.5011 50.0497 25.549L50.576 28.396C50.8392 29.7836 52.1789 30.7166 53.5665 30.4535L54.5953 30.2621C55.9829 29.9989 56.9159 28.6591 56.6528 27.2715L56.4614 26.2428C56.4614 26.2189 56.5092 26.1949 56.5092 26.2428C56.9638 27.3433 58.1121 28.0132 59.3323 27.7739L60.4328 27.5826C60.5046 27.5826 60.5763 27.5347 60.6481 27.5347C62.0357 27.2955 62.9449 25.9796 62.6817 24.592L59.4998 7.41436C59.4998 7.41436 59.4998 7.39044 59.4758 7.41436L58.0164 7.67752C58.0164 7.67752 57.9925 7.67752 58.0164 7.70145L61.0309 23.97C61.1984 24.903 60.696 25.86 59.7868 26.1232C58.782 26.4103 57.7533 25.7643 57.5619 24.7356L55.2173 12.0557L52.6574 12.8212L55.2173 26.6734C55.3848 27.6065 54.8824 28.5634 53.9732 28.8266C52.9684 29.1137 51.9397 28.4678 51.7483 27.439L49.2362 13.8261L46.6763 14.5917L48.4946 24.4245C48.662 25.3576 48.1596 26.3146 47.2505 26.5777C46.2457 26.8648 45.2169 26.2189 45.0255 25.1901L43.2551 15.5965L40.6952 16.3621L41.8436 22.5345C42.0111 23.4676 41.5087 24.4245 40.5995 24.6877C39.5947 24.9748 38.566 24.3288 38.3746 23.3001C38.3746 23.3001 36.7238 15.118 36.1735 10.9073C35.384 4.87838 35.8865 0.643775 35.6951 0.28491C35.6951 0.260986 35.6472 0.213139 35.6233 0.189215C35.3123 -0.0739528 34.4032 -0.0739557 34.1878 0.260985C33.9725 0.619849 33.9007 6.33776 34.5467 10.9552C35.1209 15.118 36.987 24.3767 36.987 24.3767C37.2501 25.7643 38.566 26.6734 39.9536 26.4103L40.1689 26.3624L41.0541 26.1949L41.2694 26.1471C42.4656 25.9318 43.3269 24.8791 43.3508 23.7068C43.3508 23.6829 43.3987 23.659 43.3987 23.7068L43.8533 26.1949C43.9968 27.0323 44.5471 27.6782 45.2409 28.0371C45.7194 28.2764 46.2696 28.3721 46.8438 28.2764L46.8677 28.1807Z" fill="#DF0918"/>
<path d="M65.5526 2.94051C65.5526 2.94051 65.1938 1.14618 63.9497 0.14136C63.9018 0.093511 63.8061 0.0695896 63.7344 0.0695896H62.6099C62.3228 0.0695896 62.1793 0.428451 62.3946 0.619846C63.1123 1.28973 64.1889 2.98835 64.165 4.83053C64.165 7.60575 62.4903 9.87856 62.6099 10.5484C62.6578 10.8355 62.7296 11.2183 62.7774 11.5293C62.8492 11.936 62.897 12.271 62.897 12.271C62.897 12.6059 63.3516 12.7256 63.4951 12.4385C63.7583 11.9839 64.0454 11.3858 64.3564 10.692C65.3373 8.46702 66.2943 5.28509 65.5526 2.96443V2.94051Z" fill="#DF0918"/>
</svg>
