<svg id="kjurupe" xmlns="http://www.w3.org/2000/svg" viewBox="0 0 178.01 106.94"><defs><style>.cls-1{fill:#fff;}.cls-2{fill:gray;}.cls-3{fill:#003770;}.cls-4{fill:#df0a14;}</style></defs><rect class="cls-1" x="-70" y="-87.48" width="316.11" height="316.11"/><path class="cls-2" d="M114.71,19.18c-.54,1.23-1.08,2.3-1.53,3.1A.58.58,0,0,1,112.1,22l-.23-1.32L119.35,67,87.27,71.65l.47,2.89,35.09-5.06Z"/><path class="cls-3" d="M5.93,101Q0,95,0,84.07T5.93,67.16q5.93-6,17.39-6t17.39,6q5.92,6,5.93,16.91T40.71,101q-5.93,6-17.39,6T5.93,101Zm23.45-7.86q1.86-3,1.86-9.05T29.38,75q-1.87-3-6.06-3t-6.06,3q-1.86,3-1.86,9.08t1.86,9.05q1.88,3,6.06,3T29.38,93.12Z"/><path class="cls-3" d="M53,106a4,4,0,0,1-.9-2.88v-38a3.93,3.93,0,0,1,.9-2.85,4.36,4.36,0,0,1,3.15-.9h6.29a5,5,0,0,1,2.15.37,3.93,3.93,0,0,1,1.49,1.44l12,18v-16A4,4,0,0,1,79,62.26,4.13,4.13,0,0,1,82,61.32h7.88a4.36,4.36,0,0,1,3.15.9,4,4,0,0,1,.9,2.92v38a3.93,3.93,0,0,1-.9,2.85,4.36,4.36,0,0,1-3.15.9H83.63a5,5,0,0,1-2.15-.37A3.93,3.93,0,0,1,80,105.1l-12-18v16.09a3.93,3.93,0,0,1-.9,2.85,4.39,4.39,0,0,1-3.15.9H56.07A4.11,4.11,0,0,1,53,106Z"/><path class="cls-3" d="M100.85,106a4,4,0,0,1-.91-2.89V65.14a4,4,0,0,1,.91-2.88,4.31,4.31,0,0,1,3.16-.94h16.23q10.19,0,14.84,4t4.65,12q0,8-4.65,12t-14.77,4h-4.08v9.79a4,4,0,0,1-.91,2.89,4.47,4.47,0,0,1-3.23.93H104A4.36,4.36,0,0,1,100.85,106Zm18-24.07a4.9,4.9,0,0,0,3.43-1.14,4.38,4.38,0,0,0,1.26-3.42,4.47,4.47,0,0,0-1.26-3.49,4.9,4.9,0,0,0-3.43-1.14H114.2v9.19Z"/><path class="cls-3" d="M146.51,106a4,4,0,0,1-.9-2.88V65.14a4,4,0,0,1,.9-2.88,4.2,4.2,0,0,1,3.12-.94h24.69a3.68,3.68,0,0,1,2.91.91,4.4,4.4,0,0,1,.78,2.91V68.9a4.4,4.4,0,0,1-.78,2.91,3.68,3.68,0,0,1-2.91.91H161.7v5.76h9a3.76,3.76,0,0,1,2.92.91,4.48,4.48,0,0,1,.77,2.92v3.62a4.47,4.47,0,0,1-.77,2.91,3.72,3.72,0,0,1-2.92.91h-9v5.76h12.55a3.76,3.76,0,0,1,2.92.91,4.5,4.5,0,0,1,.77,2.92v3.75a4.52,4.52,0,0,1-.77,2.92,3.76,3.76,0,0,1-2.92.9H149.63A4.2,4.2,0,0,1,146.51,106Z"/><path class="cls-1" d="M111.87,20.68c-.09-.57-.2-1.23-.29-1.76-.2-1.19,2.75-5.22,2.78-10.17a11.27,11.27,0,0,0-3.17-7.51.57.57,0,0,1,.4-1H63.51V.34a1.15,1.15,0,0,1,.14.17c.34.66-.53,8.18.86,19,1,7.49,3.93,22.1,3.93,22.1A3.15,3.15,0,0,0,72.37,44a3.29,3.29,0,0,0,2.21-3.83l-2-11,4.57-1.34,3.16,17.11a3.16,3.16,0,0,0,4,2.46,3.3,3.3,0,0,0,2.21-3.83L83.2,26l4.57-1.34L92.26,49a3.15,3.15,0,0,0,3.95,2.46,3.31,3.31,0,0,0,2.21-3.83L93.85,22.9l4.58-1.35,4.18,22.62a3.15,3.15,0,0,0,4,2.46,3.31,3.31,0,0,0,2.21-3.83l-5.36-29s0-.05,0-.06l2.61-.48s.06,0,.06,0l5.66,30.64a4.53,4.53,0,0,1-3.63,5.28l0,0a2.47,2.47,0,0,1-.36.11l-2,.36a4.53,4.53,0,0,1-5-2.75c0-.06-.11,0-.09,0l.33,1.82a4.58,4.58,0,0,1-3.67,5.34l-1.85.34a4.58,4.58,0,0,1-5.34-3.67l-.94-5.07a0,0,0,1,0-.09,0,4.53,4.53,0,0,1-3.71,4.36l-1.9.35A4.53,4.53,0,0,1,80.67,50l3.57,22.09L119.35,67Z"/><path class="cls-4" d="M83.54,50.4l1.9-.35a4.53,4.53,0,0,0,3.71-4.36,0,0,0,1,1,.09,0l.94,5.07a4.58,4.58,0,0,0,5.34,3.67l1.85-.34A4.58,4.58,0,0,0,101,48.74l-.33-1.82c0-.06.06-.08.09,0a4.53,4.53,0,0,0,5,2.75l2-.36a2.47,2.47,0,0,0,.36-.11l0,0a4.53,4.53,0,0,0,3.63-5.28L106.12,13.3s0,0-.06,0l-2.61.48s0,0,0,.06l5.36,29a3.31,3.31,0,0,1-2.21,3.83,3.15,3.15,0,0,1-4-2.46L98.43,21.55,93.85,22.9l4.57,24.68a3.31,3.31,0,0,1-2.21,3.83A3.15,3.15,0,0,1,92.26,49L87.77,24.69,83.2,26l3.24,17.53a3.3,3.3,0,0,1-2.21,3.83,3.16,3.16,0,0,1-4-2.46L77.12,27.82l-4.57,1.34,2,11A3.29,3.29,0,0,1,72.37,44a3.15,3.15,0,0,1-3.94-2.46s-3-14.61-3.93-22.1C63.11,8.69,64,1.17,63.64.51A1.15,1.15,0,0,0,63.5.34c-.56-.49-2.18-.46-2.55.12s-.49,10.82.66,19.08C62.64,27,66,43.48,66,43.48a4.53,4.53,0,0,0,5.28,3.63l.39-.07,1.56-.29.39-.07a4.53,4.53,0,0,0,3.7-4.36c0-.07.09-.08.1,0l.81,4.42A4.6,4.6,0,0,0,80.67,50,4.53,4.53,0,0,0,83.54,50.4Z"/><polygon class="cls-4" points="111.59 0.26 111.59 0.26 112.62 0.26 111.59 0.26"/><path class="cls-4" d="M116.84,5.4a9.79,9.79,0,0,0-2.85-5,.58.58,0,0,0-.38-.13h-2a.57.57,0,0,0-.4,1,11.27,11.27,0,0,1,3.17,7.51c0,4.95-3,9-2.78,10.17.09.53.2,1.19.29,1.76h0L112.1,22a.58.58,0,0,0,1.08.28c.45-.8,1-1.87,1.53-3.1C116.44,15.21,118.17,9.54,116.84,5.4Z"/></svg>